<?xml version="1.0" encoding="UTF-8" standalone="no"?>
<svg
   fill="currentColor"
   class="bi bi-terminal"
   viewBox="0 0 16 16"
   version="1.1"
   id="svg6"
   sodipodi:docname="terminal.svg"
   inkscape:version="1.1.2 (0a00cf5339, 2022-02-04)"
   xmlns:inkscape="http://www.inkscape.org/namespaces/inkscape"
   xmlns:sodipodi="http://sodipodi.sourceforge.net/DTD/sodipodi-0.dtd"
   xmlns="http://www.w3.org/2000/svg"
   xmlns:svg="http://www.w3.org/2000/svg">
  <defs
     id="defs10" />
  <sodipodi:namedview
     id="namedview8"
     pagecolor="#ffffff"
     bordercolor="#666666"
     borderopacity="1.0"
     inkscape:pageshadow="2"
     inkscape:pageopacity="0.0"
     inkscape:pagecheckerboard="0"
     showgrid="false"
     inkscape:zoom="33.5625"
     inkscape:cx="10.249534"
     inkscape:cy="7.5679702"
     inkscape:window-width="1366"
     inkscape:window-height="683"
     inkscape:window-x="0"
     inkscape:window-y="24"
     inkscape:window-maximized="1"
     inkscape:current-layer="svg6" />
  <path
     d="m 4.9696575,7.7119495 a 0.5,0.5 0 0 1 0.5,-0.5 h 3 a 0.5,0.5 0 0 1 0,1 h -3 a 0.5,0.5 0 0 1 -0.5,-0.5 z m -2.146,-4.854 a 0.5006316,0.5006316 0 1 0 -0.708,0.708 l 1.647,1.646 -1.647,1.646 a 0.5006316,0.5006316 0 1 0 0.708,0.708 l 2,-2 a 0.5,0.5 0 0 0 0,-0.708 z"
     id="path2" />
  <path
     d="M2 1a2 2 0 0 0-2 2v10a2 2 0 0 0 2 2h12a2 2 0 0 0 2-2V3a2 2 0 0 0-2-2H2zm12 1a1 1 0 0 1 1 1v10a1 1 0 0 1-1 1H2a1 1 0 0 1-1-1V3a1 1 0 0 1 1-1h12z"
     id="path4" />
  <text
     xml:space="preserve"
     style="font-size:6.66667px;line-height:1.25;font-family:Figtree;-inkscape-font-specification:Figtree"
     x="2.9456017"
     y="13.093431"
     id="text2237"><tspan
       sodipodi:role="line"
       id="tspan2235"
       x="2.9456017"
       y="13.093431"
       style="font-size:6.66667px">ssh</tspan></text>
</svg>
