<?xml version="1.0" encoding="UTF-8" standalone="no"?>
<svg
   viewBox="0 0 500 500"
   version="1.1"
   id="svg4"
   sodipodi:docname="fa-bars-staggered-solid.svg"
   inkscape:version="1.1.2 (0a00cf5339, 2022-02-04)"
   xmlns:inkscape="http://www.inkscape.org/namespaces/inkscape"
   xmlns:sodipodi="http://sodipodi.sourceforge.net/DTD/sodipodi-0.dtd"
   xmlns="http://www.w3.org/2000/svg"
   xmlns:svg="http://www.w3.org/2000/svg">
  <defs
     id="defs8" />
  <sodipodi:namedview
     id="namedview6"
     pagecolor="#ffffff"
     bordercolor="#666666"
     borderopacity="1.0"
     inkscape:pageshadow="2"
     inkscape:pageopacity="0.0"
     inkscape:pagecheckerboard="0"
     showgrid="false"
     inkscape:zoom="0.75896117"
     inkscape:cx="194.34459"
     inkscape:cy="212.13206"
     inkscape:window-width="1366"
     inkscape:window-height="683"
     inkscape:window-x="0"
     inkscape:window-y="24"
     inkscape:window-maximized="1"
     inkscape:current-layer="svg4" />
  <!--! Font Awesome Pro 6.4.0 by @fontawesome - https://fontawesome.com License - https://fontawesome.com/license (Commercial License) Copyright 2023 Fonticons, Inc. -->
  <path
     d="m 8.838568,98.751649 c 0,-16.746452 13.529619,-30.276071 30.276071,-30.276071 H 402.42749 c 16.74645,0 30.27607,13.529619 30.27607,30.276071 0,16.746451 -13.52962,30.276071 -30.27607,30.276071 H 39.114639 c -16.746452,0 -30.276071,-13.52962 -30.276071,-30.276071 z M 69.390709,250.132 c 0,-16.74645 13.52962,-30.27607 30.276071,-30.27607 h 363.31285 c 16.74645,0 30.27607,13.52962 30.27607,30.27607 0,16.74646 -13.52962,30.27608 -30.27607,30.27608 H 99.66678 c -16.746451,0 -30.276071,-13.52962 -30.276071,-30.27608 z M 432.70356,401.51236 c 0,16.74645 -13.52962,30.27607 -30.27607,30.27607 H 39.114639 c -16.746452,0 -30.276071,-13.52962 -30.276071,-30.27607 0,-16.74645 13.529619,-30.27607 30.276071,-30.27607 H 402.42749 c 16.74645,0 30.27607,13.52962 30.27607,30.27607 z"
     id="path2"
     style="stroke-width:0.946127" />
</svg>
