<?xml version="1.0" encoding="UTF-8" standalone="no"?>
<svg
   viewBox="0 0 500 500"
   version="1.1"
   id="svg4"
   sodipodi:docname="square-poll-vertical-solid.svg"
   inkscape:version="1.1.2 (0a00cf5339, 2022-02-04)"
   xmlns:inkscape="http://www.inkscape.org/namespaces/inkscape"
   xmlns:sodipodi="http://sodipodi.sourceforge.net/DTD/sodipodi-0.dtd"
   xmlns="http://www.w3.org/2000/svg"
   xmlns:svg="http://www.w3.org/2000/svg">
  <defs
     id="defs8" />
  <sodipodi:namedview
     id="namedview6"
     pagecolor="#ffffff"
     bordercolor="#666666"
     borderopacity="1.0"
     inkscape:pageshadow="2"
     inkscape:pageopacity="0.0"
     inkscape:pagecheckerboard="0"
     showgrid="false"
     units="in"
     inkscape:zoom="0.99804688"
     inkscape:cx="223.93738"
     inkscape:cy="238.46575"
     inkscape:window-width="1366"
     inkscape:window-height="683"
     inkscape:window-x="0"
     inkscape:window-y="24"
     inkscape:window-maximized="1"
     inkscape:current-layer="svg4" />
  <!--! Font Awesome Pro 6.4.0 by @fontawesome - https://fontawesome.com License - https://fontawesome.com/license (Commercial License) Copyright 2023 Fonticons, Inc. -->
  <path
     d="m 89.260396,26.596043 c -35.3,0 -64,28.7 -64,64 V 410.59604 c 0,35.3 28.7,64 64,64 H 409.2604 c 35.3,0 64,-28.7 64,-64 V 90.596043 c 0,-35.3 -28.7,-64 -64,-64 z M 153.2604,218.59604 c 17.7,0 32,14.3 32,32 v 96 c 0,17.7 -14.3,32 -32,32 -17.7,0 -32,-14.3 -32,-32 v -96 c 0,-17.7 14.3,-32 32,-32 z m 64,-64 c 0,-17.7 14.3,-32 32,-32 17.7,0 32,14.3 32,32 v 192 c 0,17.7 -14.3,32 -32,32 -17.7,0 -32,-14.3 -32,-32 z m 128,128 c 17.7,0 32,14.3 32,32 v 32 c 0,17.7 -14.3,32 -32,32 -17.7,0 -32,-14.3 -32,-32 v -32 c 0,-17.7 14.3,-32 32,-32 z"
     id="path2" />
</svg>
