<?xml version="1.0" encoding="UTF-8" standalone="no"?>
<svg
   viewBox="0 0 500 500"
   version="1.1"
   id="svg4"
   sodipodi:docname="terminal-solid.svg"
   inkscape:version="1.1.2 (0a00cf5339, 2022-02-04)"
   xmlns:inkscape="http://www.inkscape.org/namespaces/inkscape"
   xmlns:sodipodi="http://sodipodi.sourceforge.net/DTD/sodipodi-0.dtd"
   xmlns="http://www.w3.org/2000/svg"
   xmlns:svg="http://www.w3.org/2000/svg">
  <defs
     id="defs8" />
  <sodipodi:namedview
     id="namedview6"
     pagecolor="#ffffff"
     bordercolor="#666666"
     borderopacity="1.0"
     inkscape:pageshadow="2"
     inkscape:pageopacity="0.0"
     inkscape:pagecheckerboard="0"
     showgrid="false"
     inkscape:zoom="0.99804688"
     inkscape:cx="262.01174"
     inkscape:cy="288.5636"
     inkscape:window-width="1366"
     inkscape:window-height="683"
     inkscape:window-x="0"
     inkscape:window-y="24"
     inkscape:window-maximized="1"
     inkscape:current-layer="svg4" />
  <!--! Font Awesome Pro 6.4.0 by @fontawesome - https://fontawesome.com License - https://fontawesome.com/license (Commercial License) Copyright 2023 Fonticons, Inc. -->
  <path
     d="m 15.176171,105.68729 c -10.5402764,-10.54028 -10.5402764,-27.573367 0,-38.113644 10.540278,-10.540277 27.657687,-10.540277 38.197964,0 L 215.27279,229.4723 c 10.54027,10.54028 10.54027,27.65769 0,38.19797 L 53.374135,429.56892 c -10.540277,10.54028 -27.657686,10.54028 -38.197964,0 -10.5402764,-10.54028 -10.5402764,-27.65769 0,-38.19796 L 157.93368,248.52912 Z M 223.11475,383.44467 h 242.84798 c 14.92503,0 26.98311,12.05807 26.98311,26.98311 0,14.92503 -12.05808,26.98311 -26.98311,26.98311 H 223.11475 c -14.92503,0 -26.98311,-12.05808 -26.98311,-26.98311 0,-14.92504 12.05808,-26.98311 26.98311,-26.98311 z"
     id="path2"
     style="stroke-width:0.843222" />
</svg>
