<?xml version="1.0" encoding="UTF-8" standalone="no"?>
<svg
   fill="currentColor"
   class="bi bi-cloud-haze2"
   viewBox="0 0 16 16"
   version="1.1"
   id="svg4"
   sodipodi:docname="bootstrap-cloud-haze.svg"
   inkscape:version="1.1.2 (0a00cf5339, 2022-02-04)"
   xmlns:inkscape="http://www.inkscape.org/namespaces/inkscape"
   xmlns:sodipodi="http://sodipodi.sourceforge.net/DTD/sodipodi-0.dtd"
   xmlns="http://www.w3.org/2000/svg"
   xmlns:svg="http://www.w3.org/2000/svg">
  <defs
     id="defs8" />
  <sodipodi:namedview
     id="namedview6"
     pagecolor="#ffffff"
     bordercolor="#666666"
     borderopacity="1.0"
     inkscape:pageshadow="2"
     inkscape:pageopacity="0.0"
     inkscape:pagecheckerboard="0"
     showgrid="false"
     inkscape:zoom="31.9375"
     inkscape:cx="8"
     inkscape:cy="8.0156556"
     inkscape:window-width="1366"
     inkscape:window-height="683"
     inkscape:window-x="0"
     inkscape:window-y="24"
     inkscape:window-maximized="1"
     inkscape:current-layer="svg4" />
  <path
     d="M8.5 3a4.002 4.002 0 0 0-3.8 2.745.5.5 0 1 1-.949-.313 5.002 5.002 0 0 1 9.654.595A3 3 0 0 1 13 12H4.5a.5.5 0 0 1 0-1H13a2 2 0 0 0 .001-4h-.026a.5.5 0 0 1-.5-.445A4 4 0 0 0 8.5 3zM0 7.5A.5.5 0 0 1 .5 7h5a.5.5 0 0 1 0 1h-5a.5.5 0 0 1-.5-.5zm2 2a.5.5 0 0 1 .5-.5h9a.5.5 0 0 1 0 1h-9a.5.5 0 0 1-.5-.5zm-2 4a.5.5 0 0 1 .5-.5h9a.5.5 0 0 1 0 1h-9a.5.5 0 0 1-.5-.5z"
     id="path2"
     style="fill:#b54848;fill-opacity:1" />
</svg>
